<?xml version="1.0" encoding="UTF-8"?>
<svg xmlns="http://www.w3.org/2000/svg" viewBox="0 0 1266 521" width="1266" height="521" role="img" aria-label="HeartMemo logo">
  <title>HeartMemo logo</title>
  <g fill="#d90b08" stroke="#e7e7e7" stroke-width="2" stroke-linejoin="round" stroke-linecap="round" fill-rule="evenodd">
    <path d="M 1017.0 296.0 L 998.0 301.0 L 984.0 308.0 L 971.0 318.0 L 959.0 332.0 L 950.0 349.0 L 946.0 361.0 L 946.0 365.0 L 944.0 370.0 L 944.0 395.0 L 949.0 414.0 L 957.0 430.0 L 967.0 443.0 L 978.0 453.0 L 987.0 459.0 L 1000.0 465.0 L 1016.0 469.0 L 1033.0 469.0 L 1047.0 466.0 L 1063.0 459.0 L 1076.0 450.0 L 1087.0 439.0 L 1097.0 424.0 L 1103.0 410.0 L 1107.0 393.0 L 1107.0 374.0 L 1103.0 356.0 L 1095.0 337.0 L 1087.0 326.0 L 1077.0 316.0 L 1061.0 305.0 L 1050.0 300.0 L 1034.0 296.0 Z
    M 756.0 316.0 L 743.0 337.0 L 739.0 355.0 L 740.0 469.0 L 760.0 467.0 L 773.0 455.0 L 775.0 448.0 L 775.0 352.0 L 778.0 345.0 L 793.0 334.0 L 808.0 338.0 L 817.0 351.0 L 817.0 461.0 L 819.0 469.0 L 842.0 470.0 L 852.0 460.0 L 854.0 454.0 L 854.0 352.0 L 858.0 343.0 L 872.0 334.0 L 885.0 337.0 L 892.0 344.0 L 896.0 354.0 L 896.0 468.0 L 919.0 469.0 L 929.0 461.0 L 932.0 452.0 L 932.0 349.0 L 922.0 323.0 L 907.0 307.0 L 880.0 296.0 L 857.0 297.0 L 837.0 308.0 L 817.0 298.0 L 794.0 296.0 L 769.0 305.0 Z
    M 541.0 316.0 L 527.0 304.0 L 515.0 298.0 L 500.0 295.0 L 479.0 298.0 L 462.0 308.0 L 440.0 297.0 L 415.0 296.0 L 388.0 309.0 L 372.0 328.0 L 365.0 349.0 L 365.0 468.0 L 386.0 468.0 L 397.0 462.0 L 401.0 456.0 L 401.0 352.0 L 406.0 342.0 L 417.0 334.0 L 432.0 337.0 L 443.0 352.0 L 443.0 468.0 L 447.0 470.0 L 466.0 469.0 L 477.0 459.0 L 479.0 350.0 L 482.0 344.0 L 495.0 334.0 L 503.0 334.0 L 511.0 338.0 L 520.0 351.0 L 521.0 468.0 L 542.0 469.0 L 546.0 467.0 L 556.0 452.0 L 556.0 349.0 L 551.0 331.0 Z
    M 441.0 99.0 L 428.0 101.0 L 410.0 108.0 L 394.0 119.0 L 378.0 137.0 L 367.0 162.0 L 364.0 178.0 L 364.0 196.0 L 367.0 212.0 L 376.0 233.0 L 382.0 242.0 L 396.0 256.0 L 406.0 263.0 L 425.0 271.0 L 434.0 273.0 L 455.0 273.0 L 471.0 269.0 L 492.0 257.0 L 505.0 244.0 L 514.0 231.0 L 521.0 216.0 L 523.0 206.0 L 505.0 197.0 L 496.0 198.0 L 490.0 202.0 L 482.0 215.0 L 473.0 225.0 L 460.0 233.0 L 448.0 236.0 L 437.0 235.0 L 424.0 230.0 L 417.0 225.0 L 410.0 216.0 L 413.0 213.0 L 519.0 171.0 L 523.0 169.0 L 524.0 166.0 L 515.0 142.0 L 507.0 130.0 L 492.0 115.0 L 475.0 105.0 L 463.0 101.0 Z
    M 645.0 296.0 L 631.0 298.0 L 611.0 306.0 L 600.0 313.0 L 587.0 326.0 L 577.0 340.0 L 570.0 357.0 L 567.0 371.0 L 567.0 394.0 L 573.0 418.0 L 582.0 434.0 L 592.0 446.0 L 607.0 458.0 L 621.0 465.0 L 636.0 469.0 L 651.0 470.0 L 664.0 468.0 L 678.0 463.0 L 699.0 449.0 L 717.0 427.0 L 722.0 417.0 L 726.0 402.0 L 711.0 394.0 L 700.0 394.0 L 691.0 400.0 L 677.0 420.0 L 667.0 427.0 L 654.0 432.0 L 642.0 432.0 L 634.0 430.0 L 623.0 424.0 L 613.0 414.0 L 613.0 412.0 L 644.0 398.0 L 722.0 368.0 L 726.0 365.0 L 726.0 360.0 L 715.0 334.0 L 697.0 314.0 L 677.0 302.0 L 660.0 297.0 Z
    M 571.0 113.0 L 558.0 124.0 L 546.0 141.0 L 538.0 160.0 L 535.0 176.0 L 537.0 210.0 L 547.0 234.0 L 556.0 247.0 L 578.0 265.0 L 588.0 270.0 L 604.0 274.0 L 629.0 272.0 L 644.0 268.0 L 648.0 265.0 L 647.0 247.0 L 639.0 236.0 L 635.0 234.0 L 613.0 235.0 L 595.0 229.0 L 579.0 215.0 L 571.0 199.0 L 570.0 179.0 L 573.0 167.0 L 579.0 156.0 L 597.0 141.0 L 611.0 137.0 L 619.0 137.0 L 631.0 140.0 L 640.0 145.0 L 651.0 156.0 L 659.0 171.0 L 661.0 181.0 L 661.0 273.0 L 680.0 274.0 L 690.0 269.0 L 696.0 259.0 L 697.0 181.0 L 691.0 153.0 L 678.0 130.0 L 664.0 116.0 L 650.0 107.0 L 622.0 99.0 L 595.0 102.0 Z
    M 172.0 48.0 L 168.0 53.0 L 168.0 160.0 L 171.0 166.0 L 180.0 172.0 L 256.0 172.0 L 261.0 170.0 L 267.0 164.0 L 270.0 157.0 L 270.0 54.0 L 269.0 51.0 L 265.0 48.0 L 259.0 48.0 L 254.0 50.0 L 237.0 60.0 L 221.0 76.0 L 217.0 76.0 L 203.0 62.0 L 195.0 56.0 L 183.0 50.0 Z
    M 802.0 69.0 L 801.0 70.0 L 801.0 201.0 L 806.0 221.0 L 813.0 235.0 L 821.0 246.0 L 839.0 262.0 L 861.0 272.0 L 886.0 275.0 L 889.0 271.0 L 889.0 254.0 L 887.0 246.0 L 881.0 239.0 L 876.0 236.0 L 859.0 230.0 L 845.0 217.0 L 840.0 208.0 L 837.0 193.0 L 837.0 152.0 L 839.0 150.0 L 847.0 149.0 L 883.0 149.0 L 886.0 147.0 L 886.0 112.0 L 885.0 111.0 L 841.0 111.0 L 839.0 112.0 L 837.0 110.0 L 837.0 70.0 L 836.0 69.0 Z
    M 789.0 101.0 L 778.0 102.0 L 766.0 105.0 L 758.0 108.0 L 744.0 116.0 L 735.0 123.0 L 725.0 134.0 L 720.0 141.0 L 713.0 155.0 L 709.0 167.0 L 709.0 172.0 L 707.0 179.0 L 707.0 272.0 L 709.0 274.0 L 728.0 274.0 L 732.0 273.0 L 737.0 269.0 L 742.0 262.0 L 742.0 239.0 L 743.0 238.0 L 743.0 232.0 L 742.0 231.0 L 742.0 187.0 L 743.0 186.0 L 744.0 175.0 L 752.0 159.0 L 762.0 149.0 L 772.0 143.0 L 782.0 140.0 L 786.0 140.0 L 790.0 137.0 L 790.0 102.0 Z
    M 137.0 49.0 L 127.0 54.0 L 119.0 60.0 L 108.0 71.0 L 101.0 82.0 L 94.0 101.0 L 93.0 112.0 L 92.0 113.0 L 92.0 126.0 L 96.0 147.0 L 108.0 175.0 L 127.0 203.0 L 138.0 215.0 L 141.0 216.0 L 145.0 211.0 L 145.0 53.0 L 142.0 49.0 Z
    M 297.0 49.0 L 294.0 52.0 L 293.0 55.0 L 293.0 209.0 L 294.0 212.0 L 297.0 215.0 L 299.0 215.0 L 310.0 204.0 L 321.0 189.0 L 337.0 160.0 L 343.0 143.0 L 346.0 117.0 L 345.0 116.0 L 344.0 102.0 L 340.0 89.0 L 330.0 71.0 L 314.0 56.0 L 302.0 50.0 Z
    M 169.0 207.0 L 168.0 210.0 L 168.0 238.0 L 170.0 243.0 L 175.0 248.0 L 183.0 253.0 L 215.0 269.0 L 221.0 269.0 L 248.0 255.0 L 254.0 253.0 L 261.0 249.0 L 268.0 242.0 L 270.0 235.0 L 270.0 212.0 L 268.0 205.0 L 263.0 200.0 L 260.0 199.0 L 177.0 199.0 Z
    M 1017.0 334.0 L 1035.0 334.0 L 1052.0 343.0 L 1064.0 356.0 L 1068.0 364.0 L 1071.0 375.0 L 1070.0 395.0 L 1062.0 412.0 L 1049.0 424.0 L 1039.0 429.0 L 1031.0 431.0 L 1015.0 430.0 L 1007.0 427.0 L 999.0 422.0 L 986.0 408.0 L 983.0 402.0 L 979.0 387.0 L 979.0 377.0 L 981.0 368.0 L 988.0 354.0 L 997.0 344.0 L 1006.0 338.0 Z
    M 474.0 149.0 L 472.0 152.0 L 459.0 158.0 L 451.0 160.0 L 446.0 163.0 L 426.0 170.0 L 416.0 175.0 L 411.0 176.0 L 404.0 180.0 L 401.0 178.0 L 403.0 168.0 L 411.0 154.0 L 422.0 144.0 L 430.0 140.0 L 441.0 137.0 L 456.0 138.0 L 469.0 144.0 Z
    M 677.0 346.0 L 673.0 350.0 L 668.0 351.0 L 608.0 376.0 L 606.0 376.0 L 604.0 374.0 L 607.0 362.0 L 614.0 351.0 L 622.0 343.0 L 637.0 335.0 L 641.0 334.0 L 659.0 335.0 L 670.0 340.0 Z"/>
  </g>
</svg>
